<?xml version="1.0"?><svg width="1000" height="1000" xmlns="http://www.w3.org/2000/svg" xmlns:xlink="http://www.w3.org/1999/xlink">
 <title>pink play icon</title>
 <defs>
  <linearGradient id="linearGradient3624">
   <stop id="stop3626" offset="0" stop-color="#ffffff"/>
   <stop id="stop3628" offset="1" stop-color="#f1f1f1"/>
  </linearGradient>
  <linearGradient xlink:href="#linearGradient3624" id="linearGradient3622" x1="1.027236" y1="0.470189" x2="1.027235" y2="0.527878"/>
 </defs>
 <metadata id="metadata7">image/svg+xml</metadata>
 <g>
  <title>Layer 1</title>
  <g id="layer1">
   <g id="g3644" transform="matrix(20.7429, 0, 0, 22.7091, -9470.09, -16813.6)">
    <path d="m499.601013,763.380981c0,10.968994 -9.564026,19.861023 -21.361023,19.861023c-11.796997,0 -21.360992,-8.892029 -21.360992,-19.861023c0,-10.967957 9.563995,-19.859985 21.360992,-19.859985c11.796997,0 21.361023,8.892029 21.361023,19.859985z" id="path3632" stroke-miterlimit="4" stroke-width="0.99962" stroke="#aa56ff" fill="#7f00ff"/>
    <path id="path3642" d="m457.569885,761.433655c-0.032196,4.071472 13.676147,-3.283386 19.821411,-3.214294c6.047668,0.067993 21.517883,7.9552 21.517883,2.5c0,-7.536011 -6.851379,-19.384827 -20.446442,-19.464294c-13.595306,-0.079407 -20.822144,11.232056 -20.892853,20.178589z" fill-opacity="0.517857" fill="#ffffff"/>
   </g>
   <path id="path2842" d="m322.125061,702.04541l0,-428.190796l338.717896,214.095459l-338.717896,214.095337z" fill-rule="evenodd" fill="url(#linearGradient3622)"/>
  </g>
 </g>
</svg>